<svg width="29" height="29" viewBox="0 0 29 29" fill="none" xmlns="http://www.w3.org/2000/svg">
<path d="M3.625 6.64579H7.33458" stroke="#323232" stroke-width="1.5" stroke-linecap="round" stroke-linejoin="round"/>
<path d="M12.4746 4.50978C13.6543 5.68949 13.6543 7.60217 12.4746 8.78188C11.2949 9.96159 9.38224 9.96159 8.20253 8.78188C7.02282 7.60217 7.02282 5.68949 8.20253 4.50978C9.38224 3.33007 11.2949 3.33007 12.4746 4.50978" stroke="#323232" stroke-width="1.5" stroke-linecap="round" stroke-linejoin="round"/>
<path d="M13.3641 6.64579H25.375" stroke="#323232" stroke-width="1.5" stroke-linecap="round" stroke-linejoin="round"/>
<path d="M12.4746 4.50978C13.6543 5.68949 13.6543 7.60217 12.4746 8.78188C11.2949 9.96159 9.38224 9.96159 8.20253 8.78188C7.02282 7.60217 7.02282 5.68949 8.20253 4.50978C9.38224 3.33007 11.2949 3.33007 12.4746 4.50978" stroke="#323232" stroke-width="1.5" stroke-linecap="round" stroke-linejoin="round"/>
<path d="M25.375 14.5H21.6775" stroke="#323232" stroke-width="1.5" stroke-linecap="round" stroke-linejoin="round"/>
<path d="M15.6358 14.5H3.625" stroke="#323232" stroke-width="1.5" stroke-linecap="round" stroke-linejoin="round"/>
<path d="M20.7976 12.3639C21.9773 13.5436 21.9773 15.4563 20.7976 16.636C19.6179 17.8157 17.7052 17.8157 16.5255 16.636C15.3458 15.4563 15.3458 13.5436 16.5255 12.3639C17.7052 11.1842 19.6179 11.1842 20.7976 12.3639" stroke="#323232" stroke-width="1.5" stroke-linecap="round" stroke-linejoin="round"/>
<path d="M13.3641 22.3542H25.375" stroke="#323232" stroke-width="1.5" stroke-linecap="round" stroke-linejoin="round"/>
<path d="M3.625 22.3542H7.3225" stroke="#323232" stroke-width="1.5" stroke-linecap="round" stroke-linejoin="round"/>
<path d="M12.4746 20.218C13.6543 21.3977 13.6543 23.3104 12.4746 24.4901C11.2949 25.6698 9.38224 25.6698 8.20253 24.4901C7.02282 23.3104 7.02282 21.3977 8.20253 20.218C9.38224 19.0383 11.2949 19.0383 12.4746 20.218" stroke="#323232" stroke-width="1.5" stroke-linecap="round" stroke-linejoin="round"/>
</svg>
