<svg width="40" height="33" viewBox="0 0 40 33" fill="none" xmlns="http://www.w3.org/2000/svg">
<g clip-path="url(#clip0_470:171)">
<path d="M4.99998 11.6668H3.33331" stroke="#323232" stroke-width="2.5" stroke-linecap="round" stroke-linejoin="round"/>
<path d="M6.66665 6.66683H3.33331" stroke="#323232" stroke-width="2.5" stroke-linecap="round" stroke-linejoin="round"/>
<path fill-rule="evenodd" clip-rule="evenodd" d="M29.0633 26.6665H11.4167C8.73665 26.6665 6.81498 24.0832 7.58498 21.5165L11.185 9.5165C11.6933 7.82484 13.25 6.6665 15.0167 6.6665H32.665C35.345 6.6665 37.2667 9.24984 36.4967 11.8165L32.8967 23.8165C32.3883 25.5082 30.83 26.6665 29.0633 26.6665Z" stroke="#323232" stroke-width="2.5" stroke-linecap="round" stroke-linejoin="round"/>
<path d="M7.89996 24.5331L19.5 16.8164" stroke="#323232" stroke-width="2.5" stroke-linecap="round" stroke-linejoin="round"/>
<path d="M23.6833 16.7495L32.1333 25.1995" stroke="#323232" stroke-width="2.5" stroke-linecap="round" stroke-linejoin="round"/>
<path d="M11.9966 8.06006L20.0016 17.4001C20.5416 18.0301 21.4616 18.1667 22.1616 17.7217L36.1816 8.80839" stroke="#323232" stroke-width="2.5" stroke-linecap="round" stroke-linejoin="round"/>
</g>
<defs>
<clipPath id="clip0_470:171">
<rect width="40" height="33" fill="white"/>
</clipPath>
</defs>
</svg>
